<svg xmlns="http://www.w3.org/2000/svg" width="512" height="512" viewBox="0 0 512 512" version="1.1">
	<path d="M 464.015 42.954 C 462.648 44.004, 461.784 45.117, 462.094 45.428 C 462.405 45.738, 463.714 44.869, 465.004 43.496 C 467.792 40.528, 467.431 40.329, 464.015 42.954 M 334.099 53.050 C 323.396 73.395, 311.477 94.780, 309.818 96.615 C 308.020 98.603, 306.935 98.729, 291.703 98.721 C 274.522 98.711, 266.706 99.868, 252 104.594 L 244.500 107.005 241.978 104.242 C 240.591 102.722, 233.166 90.283, 225.478 76.599 C 215.264 58.418, 211.422 52.363, 211.209 54.109 C 211.048 55.424, 212.313 62.575, 214.019 70 C 222 104.740, 223.766 115.556, 221.781 117.550 C 221.385 117.947, 215.310 112.361, 208.281 105.136 C 201.251 97.911, 194.922 92, 194.215 92 C 192.365 92, 193.857 94.457, 201.250 103.589 C 212.481 117.461, 213.950 119.480, 213.975 121.080 C 213.989 121.950, 211.863 124.174, 209.250 126.024 C 201.530 131.490, 189.290 143.847, 181.957 153.579 C 178.195 158.573, 174.402 163.252, 173.529 163.976 C 172.198 165.080, 170.367 164.863, 162.221 162.637 C 139.062 156.307, 116.735 150.909, 115.181 151.265 C 113.887 151.561, 114.191 152.048, 116.500 153.378 C 118.150 154.329, 128.275 160.071, 139 166.138 C 161.168 178.678, 165 181.315, 165 184.030 C 165 185.090, 163.887 189.273, 162.527 193.326 C 161.166 197.378, 159.057 205.742, 157.840 211.911 C 156.081 220.825, 155.207 223.354, 153.583 224.223 C 151.880 225.135, 120.459 226.676, 98.250 226.938 C 95.362 226.972, 93 227.409, 93 227.909 C 93 228.880, 108.298 232.746, 134.821 238.478 C 143.798 240.419, 151.991 242.460, 153.028 243.015 C 154.065 243.570, 155.131 245.481, 155.395 247.262 C 155.660 249.043, 156.674 255.617, 157.648 261.871 L 159.420 273.242 156.694 275.587 C 155.194 276.877, 144.375 283.356, 132.650 289.984 C 120.925 296.613, 110.470 302.689, 109.416 303.487 C 107.533 304.911, 107.534 304.937, 109.466 304.968 C 110.548 304.986, 122.647 302.051, 136.352 298.447 C 150.058 294.843, 162.668 292.030, 164.373 292.197 C 166.901 292.444, 167.917 293.333, 169.861 297 C 171.174 299.475, 174.729 305.482, 177.762 310.348 L 183.276 319.197 155.388 346.485 C 132.103 369.270, 127.252 373.577, 126 372.580 C 123.186 370.341, 118.911 369, 114.588 369 C 106.215 369, 102.457 375.059, 103.634 386.664 C 104.367 393.897, 102.887 396.704, 95.278 402.514 C 90.029 406.522, 88.102 406.724, 80.218 404.089 C 72.046 401.358, 64.578 400.674, 55.985 401.869 C 47.162 403.097, 35 406.673, 35 408.040 C 35 408.568, 37.198 409, 39.885 409 C 51.051 409, 61 414.889, 61 421.497 C 61 425.412, 57.306 436.213, 49.568 454.925 C 46.515 462.309, 44.125 468.453, 44.258 468.580 C 44.391 468.706, 47.875 466.357, 52 463.359 C 61.371 456.548, 69.572 452.482, 78.175 450.380 C 91.011 447.245, 96.243 450.482, 104.045 466.386 L 109 476.486 108.965 461.493 C 108.944 452.210, 108.340 443.453, 107.381 438.500 C 106.530 434.100, 105.632 428.025, 105.386 425 C 104.893 418.927, 104.676 419.301, 113.752 410.606 L 118.861 405.712 124.870 406.895 C 135.299 408.946, 140.658 405.089, 141.636 394.827 C 142.025 390.745, 141.684 388.621, 140.174 385.739 L 138.204 381.978 164.679 356.239 C 179.240 342.082, 191.744 330.168, 192.466 329.762 C 193.297 329.295, 197.027 331.520, 202.639 335.832 C 207.513 339.576, 214.522 344.605, 218.216 347.009 C 221.909 349.413, 225.197 352.070, 225.521 352.915 C 226.134 354.512, 218.909 369.149, 209.869 384.625 C 198.180 404.637, 195.772 409.106, 196.364 409.698 C 197.130 410.463, 204.338 403.718, 227.249 380.796 C 237.900 370.140, 246.060 362.772, 247.652 362.372 C 249.112 362.006, 253.500 362.456, 257.403 363.372 C 270.310 366.402, 276.340 367.034, 292.234 367.028 C 310.912 367.021, 308.561 365.211, 316.402 385.635 C 324.248 406.073, 330.205 420.129, 330.777 419.556 C 331.055 419.279, 330.704 406.858, 329.998 391.955 C 328.905 368.889, 328.921 364.668, 330.107 363.585 C 330.873 362.886, 335.100 361.054, 339.500 359.514 C 343.900 357.975, 352.225 354.323, 358 351.399 C 366.908 346.888, 372.130 343.561, 384.957 334.224 C 386.468 333.125, 387.550 333.567, 392.794 337.427 C 396.140 339.891, 404.577 346.680, 411.543 352.516 C 418.508 358.352, 424.417 362.916, 424.673 362.660 C 425.569 361.764, 421.100 354.372, 409.594 337.721 C 403.217 328.493, 398 320.733, 398 320.477 C 398 320.221, 400.738 316.319, 404.083 311.806 C 407.429 307.294, 411.980 300.297, 414.197 296.259 C 416.413 292.220, 418.883 288.260, 419.685 287.458 C 421.919 285.224, 430.844 285.699, 456 289.389 C 468.375 291.204, 478.926 292.453, 479.447 292.164 C 480.406 291.632, 472.343 287.557, 443.640 274.066 C 428.499 266.949, 427.848 266.522, 428.388 264.066 C 431.371 250.493, 432.976 242.076, 432.987 239.941 C 432.994 238.534, 433.596 236.567, 434.325 235.571 C 435.574 233.862, 436.544 233.829, 451.380 234.991 C 473.629 236.733, 473.303 235.726, 449.567 229.392 C 442.454 227.495, 436.106 225.503, 435.459 224.966 C 434.736 224.366, 434.024 218.892, 433.611 210.745 C 433.240 203.460, 432.686 195.654, 432.378 193.398 L 431.818 189.296 440.659 184.778 C 445.522 182.293, 457.272 176.768, 466.771 172.500 C 476.270 168.232, 484.284 164.349, 484.580 163.870 C 485.469 162.432, 481.622 162.848, 455.500 167.010 C 441.750 169.201, 429.723 170.995, 428.772 170.997 C 427.562 170.999, 425.500 167.784, 421.882 160.250 C 417.239 150.583, 416.739 148.889, 416.916 143.429 C 417.025 140.090, 416.481 135.521, 415.707 133.276 L 414.300 129.193 419.900 128.525 C 427.161 127.660, 432.537 125.047, 437.930 119.762 C 450.107 107.831, 449.339 89.992, 436.092 77.090 C 419.387 60.818, 390.353 70.048, 385.997 93.014 C 384.498 100.920, 385.445 104.365, 389.670 106.380 C 395.975 109.386, 403.454 117.458, 406.937 125.015 C 411.309 134.499, 410.366 135.877, 405.535 127.064 C 403.388 123.148, 399.240 117.594, 396.317 114.722 C 382.641 101.286, 369.848 99.494, 360.308 109.678 L 356.116 114.153 351.672 111.548 C 349.228 110.115, 343.468 107.571, 338.873 105.894 C 334.278 104.217, 329.925 102.353, 329.200 101.751 C 327.564 100.393, 327.812 98.690, 333.635 71.245 C 336.115 59.555, 337.998 49.228, 337.818 48.295 C 337.618 47.254, 336.184 49.087, 334.099 53.050 M 446.247 59.250 C 445.699 59.938, 444.457 62.075, 443.488 64 C 441.766 67.421, 441.769 67.462, 443.613 65.817 C 446.099 63.600, 449.370 58, 448.179 58 C 447.665 58, 446.796 58.563, 446.247 59.250 M 412.706 78.777 C 408.787 81.194, 405.135 89.221, 404.415 97 L 403.814 103.500 405.788 100.500 C 408.676 96.110, 416.003 89.319, 415.985 91.047 C 415.958 93.740, 412.862 101.477, 410.602 104.500 C 409.368 106.150, 407.989 108.123, 407.537 108.885 C 406.275 111.012, 418.699 102.016, 423.259 97.500 L 427.299 93.500 426.564 97.465 C 425.701 102.119, 423.563 106.628, 420.769 109.686 L 418.771 111.873 420.874 111.323 C 424.128 110.472, 432.118 102.961, 433.637 99.327 C 436.792 91.775, 434.294 84.137, 427.078 79.274 C 422.996 76.523, 416.712 76.306, 412.706 78.777 M 283 112.066 C 267.228 113.462, 252.806 117.623, 238 125.049 C 207.925 140.134, 188.003 162.905, 177.551 194.144 C 172.132 210.339, 170.714 220.681, 171.263 240 C 171.791 258.588, 174.003 269.284, 180.348 283.924 C 183.960 292.260, 193.722 308, 195.280 308 C 197.019 308, 241.189 264.404, 243.664 260.244 C 246.740 255.076, 249.939 253.974, 254.593 256.480 C 258.206 258.426, 261.485 264.896, 260.474 268.083 C 260.121 269.194, 258.174 270.460, 255.690 271.195 C 252.374 272.176, 248.057 275.778, 234.992 288.467 C 225.912 297.285, 215.213 307.389, 211.215 310.919 C 207.217 314.450, 204.071 317.663, 204.223 318.059 C 204.728 319.371, 215.476 327.701, 222.543 332.258 C 257.065 354.518, 298.052 358.857, 338 344.480 C 373.375 331.748, 400.334 302.885, 412.920 264.270 C 418.019 248.624, 419.422 239.289, 419.422 221 C 419.422 198.297, 416.983 185.838, 408.196 163.638 L 403.500 151.777 396.843 152.248 C 388.740 152.822, 376.656 158.122, 367.197 165.250 C 363.730 167.862, 360.520 170, 360.062 170 C 358.441 170, 355.835 164.793, 356.377 162.636 C 356.677 161.439, 360.092 156.644, 363.965 151.980 C 367.838 147.316, 372.402 141.475, 374.108 139 L 377.209 134.500 372.854 139.040 C 370.459 141.537, 365.431 147.050, 361.680 151.290 C 355.124 158.701, 352 160.701, 352 157.487 C 352 156.655, 352.897 152.738, 353.993 148.782 C 355.089 144.826, 356.274 138.780, 356.626 135.347 L 357.265 129.105 354.383 128.407 C 352.797 128.023, 347.562 125.745, 342.750 123.344 C 323.441 113.713, 304.591 110.155, 283 112.066 M 370.617 116.525 C 383.125 123.045, 392.152 131.251, 398.086 141.500 C 401.185 146.852, 401.959 146.231, 399.506 140.360 C 394.764 129.012, 375.793 113, 367.089 113 C 364.110 113, 364.389 113.279, 370.617 116.525 M 309.524 132.114 C 306.682 141.111, 303.698 156.898, 304.196 160.304 C 304.815 164.531, 312.026 140.474, 312.679 132.005 C 313.019 127.602, 313.024 124, 312.692 124 C 312.359 124, 310.934 127.651, 309.524 132.114 M 244 132.763 C 244 135.444, 247.790 145.678, 251.478 152.958 C 254.470 158.861, 261.122 169.212, 261.610 168.723 C 261.779 168.554, 260.150 163.549, 257.991 157.600 C 254.136 146.981, 248.206 134.926, 245.414 132.036 C 244.180 130.758, 244 130.850, 244 132.763 M 334.758 163.102 L 331.171 167.421 337.439 173.165 C 341.077 176.499, 344.922 181.234, 346.604 184.452 C 348.197 187.501, 349.740 189.996, 350.034 189.998 C 350.328 189.999, 352.939 187.600, 355.836 184.666 L 361.104 179.331 359.650 175.111 C 356.398 165.672, 350.555 160.421, 342.031 159.277 C 338.659 158.825, 338.042 159.150, 334.758 163.102 M 322.167 169.750 C 321.671 170.713, 320.698 173.913, 320.006 176.862 L 318.747 182.224 313.623 181.362 C 304.038 179.749, 291.049 180.414, 284.898 182.831 C 277.635 185.686, 270.957 192.309, 266.777 200.805 C 263.667 207.125, 263.501 208.027, 263.529 218.482 C 263.567 232.622, 265.445 237.306, 274.154 244.972 C 281.556 251.488, 285.268 252.899, 295.145 252.956 C 316.189 253.077, 332.170 240.545, 336.110 220.833 C 336.973 216.514, 336.952 213.659, 336.019 208.833 C 335.346 205.350, 334.573 201.314, 334.301 199.864 C 333.837 197.389, 334.210 197.093, 340.403 195.032 C 344.031 193.825, 346.990 192.311, 346.978 191.668 C 346.929 189.086, 342.980 181.982, 339.349 177.949 C 331.477 169.203, 324.233 165.746, 322.167 169.750 M 195.507 171.012 C 198.370 175.643, 238.464 194.870, 240.666 192.667 C 242.248 191.085, 217.082 177.258, 204.190 172.626 C 196.252 169.774, 194.546 169.457, 195.507 171.012 M 392.362 187.009 C 386.236 188.588, 378.361 191.082, 374.862 192.551 C 367.355 195.701, 355.860 202.259, 354.076 204.408 C 350.189 209.092, 396.401 191.863, 404.500 185.608 C 407.341 183.414, 405.465 183.631, 392.362 187.009 M 295.449 188.057 C 292.950 190.818, 292.250 201.274, 294.246 206.036 C 298.869 217.071, 311.860 223.437, 322.404 219.834 C 326.085 218.577, 331.017 213.683, 329.815 212.482 C 329.512 212.179, 327.317 212.368, 324.938 212.903 C 319.318 214.165, 311.701 212.729, 306.793 209.482 C 301.598 206.044, 298.794 200.145, 298.631 192.307 C 298.559 188.838, 298.232 186, 297.905 186 C 297.578 186, 296.472 186.925, 295.449 188.057 M 308.750 188.080 C 304.884 190.332, 307.477 201.067, 312.803 204.860 C 319.841 209.871, 327 208.140, 327 201.427 C 327 196.324, 324.597 192.434, 319.657 189.539 C 315.081 186.857, 311.640 186.397, 308.750 188.080 M 280.039 194.600 C 276.279 200.528, 275.013 204.876, 275.006 211.884 C 274.998 219.285, 276.690 224.278, 280.855 229.144 C 285.900 235.038, 292.769 237.979, 301.500 237.985 C 308.882 237.989, 314.454 236.852, 317.311 234.759 C 318.741 233.712, 317.557 233.497, 310.265 233.481 C 303.489 233.465, 300.451 232.980, 296.878 231.343 C 290.237 228.301, 284.414 222.642, 282.308 217.186 C 280.001 211.207, 280.019 199.995, 282.345 194.596 C 284.764 188.980, 283.602 188.981, 280.039 194.600 M 187.858 226.110 C 184.205 226.582, 179.930 227.533, 178.358 228.225 C 175.665 229.411, 175.903 229.504, 182.500 229.831 C 189.513 230.179, 216.425 228.463, 223 227.248 L 226.500 226.601 223.500 225.919 C 219.277 224.958, 195.808 225.084, 187.858 226.110 M 371 232.132 C 377.339 234.680, 394.437 238.112, 403.500 238.655 C 414.827 239.334, 415.489 238.179, 405.277 235.557 C 391.575 232.039, 363.886 229.272, 371 232.132 M 258.542 245.338 C 255.410 250.683, 255.185 254.974, 258 255.710 C 259.204 256.025, 260.006 257.082, 260.015 258.367 C 260.040 261.782, 261.446 263.116, 265.606 263.672 C 269.320 264.168, 269.696 263.950, 273.750 258.961 C 276.087 256.084, 278 252.964, 278 252.026 C 278 249.689, 266.606 241, 263.541 241 C 261.700 241, 260.447 242.088, 258.542 245.338 M 219.997 250.263 C 214.221 252.593, 204.694 257.171, 198.827 260.436 C 179.959 270.934, 178.805 273.102, 195.582 266.533 C 216.818 258.219, 238.455 245.943, 231.750 246.013 C 231.063 246.020, 225.774 247.933, 219.997 250.263 M 339.854 265.702 C 341.697 269.098, 360.506 286.707, 368.922 292.914 C 377.459 299.211, 382.863 302.470, 383.580 301.753 C 384.261 301.072, 373.609 288.724, 367.930 283.610 C 361.183 277.535, 350.046 269.611, 343.689 266.363 C 339.582 264.264, 339.021 264.168, 339.854 265.702 M 280.817 288 C 273.643 302.698, 263.958 332.781, 264.019 340.181 C 264.064 345.682, 276.786 320.839, 281.268 306.500 C 284.290 296.830, 286.342 285.586, 285.830 281.500 C 285.494 278.817, 284.964 279.504, 280.817 288 M 308.432 292 C 308.954 303.418, 312.415 317.291, 317.934 330.094 C 322.741 341.242, 324.016 342.833, 323.365 336.871 C 321.309 318.012, 317.049 301.096, 311.469 289.633 L 307.997 282.500 308.432 292 M 384 380.532 C 384 384.774, 391.805 395.528, 393.589 393.744 C 394.669 392.665, 392.083 386.556, 388.923 382.723 C 385.662 378.767, 384 378.027, 384 380.532 M 112.715 380.683 C 112.449 381.133, 111.906 383.460, 111.510 385.856 C 111.113 388.251, 109.899 391.101, 108.813 392.187 C 106.933 394.067, 106.921 394.255, 108.574 396.081 C 109.529 397.137, 110.591 398, 110.933 398 C 111.276 398, 112.091 394.084, 112.743 389.298 C 113.859 381.121, 113.851 378.771, 112.715 380.683 M 119.250 395.644 C 113.504 399.544, 112.993 400.779, 116 403.500 C 117.939 405.255, 118 405.247, 118 403.232 C 118 402.089, 119.023 399.881, 120.274 398.327 C 124.186 393.463, 125.257 391.999, 124.872 392.041 C 124.668 392.063, 122.138 393.685, 119.250 395.644 M 90.500 419.666 C 81.964 422.649, 76.124 427.181, 70.761 434.983 C 67.919 439.118, 66.248 441.993, 67.047 441.374 C 67.846 440.755, 73.346 436.368, 79.269 431.624 C 85.192 426.881, 90.285 423, 90.587 423 C 90.889 423, 90.279 424.238, 89.232 425.750 C 86.527 429.656, 85.805 431, 86.409 431 C 87.338 431, 95.147 419.935, 94.817 419.086 C 94.643 418.636, 92.700 418.898, 90.500 419.666" stroke="none" fill="black" fill-rule="evenodd"/>
</svg>